<svg xmlns="http://www.w3.org/2000/svg" viewBox="0 0 24 24" fill="none"><path fill="#e6edf3" d="M12 .5a12 12 0 0 0-3.8 23.4c.6.1.8-.2.8-.6v-2.1c-3.3.7-4-1.4-4-1.4-.5-1.2-1.2-1.5-1.2-1.5-1-.7.1-.7.1-.7 1.1.1 1.7 1.1 1.7 1.1 1 .1.6 1.9 2.7 2.3.1-.8.4-1.3.7-1.6-2.6-.3-5.3-1.3-5.3-5.9 0-1.3.5-2.4 1.2-3.2-.1-.3-.5-1.5.1-3.1 0 0 1-.3 3.3 1.2a11.4 11.4 0 0 1 6 0c2.3-1.5 3.3-1.2 3.3-1.2.6 1.6.2 2.8.1 3.1.8.8 1.2 1.9 1.2 3.2 0 4.6-2.7 5.6-5.3 5.9.4.3.8 1 .8 2.1v3.1c0 .4.2.7.8.6A12 12 0 0 0 12 .5Z"/></svg>